<svg width="14" height="14" viewBox="0 0 14 14" fill="none" xmlns="http://www.w3.org/2000/svg">
<path d="M2.33333 7L2.33333 5.25C2.33327 4.87964 2.4507 4.51881 2.66873 4.21944C2.88676 3.92006 3.19415 3.69758 3.54667 3.584M5.83333 3.5L11.6667 3.5M11.6667 3.5L9.91667 1.75M11.6667 3.5L9.91667 5.25M11.6667 7L11.6667 8.75C11.6668 8.92519 11.6407 9.09941 11.5891 9.26683M10.4283 10.4242C10.2624 10.4746 10.09 10.5002 9.91667 10.5L2.33333 10.5M2.33333 10.5L4.08333 12.25M2.33333 10.5L4.08333 8.75M1.75 1.75L12.25 12.25" stroke="#5D5E60" stroke-width="1.16667" stroke-linecap="round" stroke-linejoin="round"/>
</svg>
