<svg width="24" height="24" viewBox="0 0 24 24" fill="none" xmlns="http://www.w3.org/2000/svg">
<path d="M1 13.1904C1 10.2412 1.21821 8.03999 1.41895 6.64063C1.63277 5.14994 2.78428 4.01581 4.27344 3.81739C4.68204 3.76288 5.16219 3.70679 5.71484 3.65333C6.26448 3.60026 6.75346 4.00309 6.80664 4.55274C6.85977 5.10242 6.45691 5.59136 5.90723 5.64454C5.37726 5.69581 4.92078 5.74863 4.53711 5.79981C3.93219 5.88048 3.48474 6.32335 3.39844 6.92384C3.21061 8.23308 3 10.3399 3 13.1904C3 16.0409 3.21062 18.1478 3.39844 19.457C3.48456 20.0574 3.93225 20.5001 4.53809 20.5811H4.53711C5.98215 20.7736 8.43818 21 12 21C15.562 21 18.0177 20.774 19.4629 20.5811L19.5742 20.5615C20.1223 20.4443 20.5208 20.0202 20.6016 19.457C20.7894 18.1478 21 16.0409 21 13.1904C21 10.3399 20.7894 8.23308 20.6016 6.92384C20.5153 6.32365 20.0683 5.8808 19.4639 5.79981V5.80079C19.0083 5.74055 18.5512 5.68823 18.0938 5.64454C17.5441 5.5919 17.1409 5.10341 17.1934 4.55372C17.2459 4.00402 17.7344 3.60083 18.2842 3.65333C18.7656 3.69931 19.2462 3.75401 19.7256 3.81739H19.7266C21.2157 4.01581 22.3672 5.14994 22.5811 6.64063C22.7818 8.03999 23 10.2412 23 13.1904C23 16.1399 22.7818 18.3419 22.5811 19.7412C22.3672 21.2316 21.2163 22.3648 19.7275 22.5635C18.1908 22.7686 15.6466 23 12 23C8.35345 23 5.80938 22.7681 4.27344 22.5635H4.27246C2.78419 22.3644 1.63288 21.2321 1.41895 19.7412C1.2182 18.3419 1 16.1399 1 13.1904ZM8.19043 16.2383C8.74271 16.2383 9.19043 16.686 9.19043 17.2383C9.1903 17.7905 8.74264 18.2383 8.19043 18.2383H6.28613C5.73393 18.2383 5.28626 17.7905 5.28613 17.2383C5.28613 16.686 5.73385 16.2383 6.28613 16.2383H8.19043ZM12.9521 16.2383C13.5044 16.2383 13.9521 16.686 13.9521 17.2383C13.952 17.7905 13.5044 18.2383 12.9521 18.2383H11.0479C10.4956 18.2383 10.048 17.7905 10.0479 17.2383C10.0479 16.686 10.4956 16.2383 11.0479 16.2383H12.9521ZM17.7139 16.2383C18.2662 16.2383 18.7139 16.686 18.7139 17.2383C18.7137 17.7905 18.2661 18.2383 17.7139 18.2383H15.8096C15.2574 18.2383 14.8097 17.7905 14.8096 17.2383C14.8096 16.686 15.2573 16.2383 15.8096 16.2383H17.7139ZM8.19043 11.4766C8.74271 11.4766 9.19043 11.9243 9.19043 12.4766C9.1902 13.0287 8.74257 13.4766 8.19043 13.4766H6.28613C5.73399 13.4766 5.28637 13.0287 5.28613 12.4766C5.28613 11.9243 5.73385 11.4766 6.28613 11.4766H8.19043ZM12.9521 11.4766C13.5044 11.4766 13.9521 11.9243 13.9521 12.4766C13.9519 13.0287 13.5043 13.4766 12.9521 13.4766H11.0479C10.4957 13.4766 10.0481 13.0287 10.0479 12.4766C10.0479 11.9243 10.4956 11.4766 11.0479 11.4766H12.9521ZM17.7139 11.4766C18.2662 11.4766 18.7139 11.9243 18.7139 12.4766C18.7136 13.0287 18.266 13.4766 17.7139 13.4766H15.8096C15.2574 13.4766 14.8098 13.0287 14.8096 12.4766C14.8096 11.9243 15.2573 11.4766 15.8096 11.4766H17.7139ZM12 3.38087C12.8038 3.38051 13.6077 3.39285 14.4111 3.417C14.9631 3.43365 15.3974 3.8943 15.3809 4.4463C15.3642 4.99827 14.9026 5.43261 14.3506 5.41602C13.5674 5.39249 12.7835 5.38052 12 5.38087C11.1539 5.3815 10.3709 5.39354 9.65039 5.41602C9.09837 5.43325 8.63637 4.99929 8.61914 4.44727C8.60194 3.89528 9.03589 3.43423 9.58789 3.417C10.3319 3.39378 11.1365 3.38151 12 3.38087Z" fill="#141312" fill-opacity="0.25"/>
<path d="M7.96667 1.00195C9.58562 1.02686 10.5833 2.32181 10.6132 3.75488L10.619 4.38086C10.619 4.58941 10.6175 4.79832 10.6132 5.00684C10.5852 6.3502 9.70687 7.57195 8.26355 7.74023L7.96667 7.75977C7.79853 7.7623 7.62994 7.7623 7.46179 7.75977C5.84282 7.73486 4.84614 6.43994 4.81628 5.00684L4.80945 4.38086C4.80945 4.17233 4.81194 3.96337 4.81628 3.75488C4.84618 2.32182 5.84285 1.02686 7.46179 1.00195H7.96667ZM16.5389 1.00195C18.1575 1.02719 19.1546 2.322 19.1844 3.75488L19.1903 4.38086C19.1903 4.58941 19.1888 4.79832 19.1844 5.00684C19.1546 6.43994 18.1569 7.73486 16.538 7.75977C16.3698 7.7623 16.2012 7.7623 16.0331 7.75977C14.4142 7.73477 13.4174 6.43989 13.3876 5.00684L13.3807 4.38086C13.3807 4.17233 13.3832 3.96337 13.3876 3.75488C13.4175 2.32186 14.4142 1.02695 16.0331 1.00195H16.5389ZM7.49304 3.00195C7.17651 3.00682 6.90362 3.19231 6.83289 3.60547L6.81531 3.79688C6.8072 4.18613 6.8072 4.57559 6.81531 4.96484C6.82663 5.5125 7.13125 5.7542 7.49304 5.75977C7.64081 5.76199 7.78863 5.762 7.9364 5.75977C8.29805 5.75406 8.60184 5.51234 8.61316 4.96484L8.61902 4.38086L8.61316 3.79688C8.60184 3.24938 8.29805 3.00766 7.9364 3.00195C7.78879 2.99966 7.64065 2.99966 7.49304 3.00195ZM16.0643 3.00195C15.7478 3.00682 15.4749 3.19229 15.4042 3.60547L15.3866 3.79688C15.3785 4.18613 15.3785 4.57559 15.3866 4.96484C15.3979 5.5125 15.7025 5.7542 16.0643 5.75977C16.2121 5.76199 16.3599 5.76199 16.5077 5.75977L16.6405 5.74707C16.941 5.68942 17.1745 5.44383 17.1844 4.96484C17.1885 4.7702 17.1903 4.57553 17.1903 4.38086L17.1844 3.79688C17.1731 3.2493 16.8694 3.00759 16.5077 3.00195C16.36 2.99965 16.212 2.99966 16.0643 3.00195Z" fill="#141312" fill-opacity="0.25"/>
</svg>
