<svg width="24" height="24" viewBox="0 0 24 24" fill="none" xmlns="http://www.w3.org/2000/svg">
<path fill-rule="evenodd" clip-rule="evenodd" d="M18.4448 4.53518C18.4417 4.29235 18.4353 4.04956 18.4257 3.80689C18.3896 2.9132 17.7774 2.08621 16.7592 2.02529C16.5445 2.01195 16.2937 2.00439 16.0016 2.00439C15.7095 2.00439 15.4591 2.01195 15.2444 2.02529C14.2262 2.08665 13.6135 2.9132 13.5775 3.80689C13.5722 3.93909 13.5677 4.08197 13.5642 4.23551C12.5216 4.21393 11.4788 4.21393 10.4362 4.23551C10.4328 4.0926 10.4282 3.94973 10.4225 3.80689C10.3864 2.9132 9.77419 2.08621 8.75601 2.02529C8.54126 2.01195 8.29049 2.00439 7.99837 2.00439C7.70626 2.00439 7.45593 2.01195 7.24118 2.02529C6.223 2.08665 5.61031 2.9132 5.57429 3.80689C5.5654 4.02165 5.55873 4.26574 5.55517 4.53518C5.28721 4.56512 5.04238 4.59491 4.82066 4.62455C3.54815 4.7944 2.56731 5.76056 2.38457 7.03396C2.19916 8.32781 1.99597 10.3713 1.99597 13.1119C1.99597 15.8526 2.19916 17.8961 2.38457 19.1899C2.56687 20.4633 3.54815 21.4295 4.8211 21.5989C6.243 21.7888 8.60662 22.0044 12 22.0044C15.3933 22.0044 17.7569 21.7888 19.1793 21.5993C20.4518 21.4295 21.4326 20.4638 21.6154 19.1899C21.8008 17.8961 22.004 15.8526 22.004 13.1119C22.004 10.3713 21.8008 8.32781 21.6154 7.03396C21.4331 5.76056 20.4518 4.7944 19.1788 4.62455C18.9345 4.59216 18.6898 4.56236 18.4448 4.53518ZM10.2215 12.445C10.2215 12.2092 10.3152 11.983 10.4819 11.8162C10.6487 11.6495 10.8749 11.5558 11.1107 11.5558H12.8892C13.1251 11.5558 13.3512 11.6495 13.518 11.8162C13.6848 11.983 13.7785 12.2092 13.7785 12.445C13.7785 12.6809 13.6848 12.907 13.518 13.0738C13.3512 13.2406 13.1251 13.3343 12.8892 13.3343H11.1107C10.8749 13.3343 10.6487 13.2406 10.4819 13.0738C10.3152 12.907 10.2215 12.6809 10.2215 12.445ZM16.0016 11.5558C15.7657 11.5558 15.5395 11.6495 15.3728 11.8162C15.206 11.983 15.1123 12.2092 15.1123 12.445C15.1123 12.6809 15.206 12.907 15.3728 13.0738C15.5395 13.2406 15.7657 13.3343 16.0016 13.3343H17.7801C18.0159 13.3343 18.2421 13.2406 18.4089 13.0738C18.5756 12.907 18.6693 12.6809 18.6693 12.445C18.6693 12.2092 18.5756 11.983 18.4089 11.8162C18.2421 11.6495 18.0159 11.5558 17.7801 11.5558H16.0016ZM8.88762 12.445C8.88762 12.2092 8.79393 11.983 8.62716 11.8162C8.4604 11.6495 8.23422 11.5558 7.99837 11.5558H6.21988C5.98404 11.5558 5.75786 11.6495 5.59109 11.8162C5.42433 11.983 5.33064 12.2092 5.33064 12.445C5.33064 12.6809 5.42433 12.907 5.59109 13.0738C5.75786 13.2406 5.98404 13.3343 6.21988 13.3343H7.99837C8.23422 13.3343 8.4604 13.2406 8.62716 13.0738C8.79393 12.907 8.88762 12.6809 8.88762 12.445ZM11.1107 16.002C10.8749 16.002 10.6487 16.0957 10.4819 16.2624C10.3152 16.4292 10.2215 16.6554 10.2215 16.8912C10.2215 17.1271 10.3152 17.3533 10.4819 17.52C10.6487 17.6868 10.8749 17.7805 11.1107 17.7805H12.8892C13.1251 17.7805 13.3512 17.6868 13.518 17.52C13.6848 17.3533 13.7785 17.1271 13.7785 16.8912C13.7785 16.6554 13.6848 16.4292 13.518 16.2624C13.3512 16.0957 13.1251 16.002 12.8892 16.002H11.1107ZM15.1123 16.8912C15.1123 16.6554 15.206 16.4292 15.3728 16.2624C15.5395 16.0957 15.7657 16.002 16.0016 16.002H17.7801C18.0159 16.002 18.2421 16.0957 18.4089 16.2624C18.5756 16.4292 18.6693 16.6554 18.6693 16.8912C18.6693 17.1271 18.5756 17.3533 18.4089 17.52C18.2421 17.6868 18.0159 17.7805 17.7801 17.7805H16.0016C15.7657 17.7805 15.5395 17.6868 15.3728 17.52C15.206 17.3533 15.1123 17.1271 15.1123 16.8912ZM7.99837 16.002C8.23422 16.002 8.4604 16.0957 8.62716 16.2624C8.79393 16.4292 8.88762 16.6554 8.88762 16.8912C8.88762 17.1271 8.79393 17.3533 8.62716 17.52C8.4604 17.6868 8.23422 17.7805 7.99837 17.7805H6.21988C5.98404 17.7805 5.75786 17.6868 5.59109 17.52C5.42433 17.3533 5.33064 17.1271 5.33064 16.8912C5.33064 16.6554 5.42433 16.4292 5.59109 16.2624C5.75786 16.0957 5.98404 16.002 6.21988 16.002H7.99837Z" fill="#141312"/>
</svg>
