<svg width="24" height="24" viewBox="0 0 24 24" fill="none" xmlns="http://www.w3.org/2000/svg">
<path fill-rule="evenodd" clip-rule="evenodd" d="M10.4001 2.48861C10.8732 2.17012 11.4305 2 12.0009 2C12.5712 2 13.1286 2.17012 13.6017 2.48861L14.7083 3.24527C17.9302 5.43327 20.7349 8.17979 22.9899 11.3552L23.3449 11.8585C23.7782 12.4751 23.7482 13.2151 23.4082 13.7701C23.2372 14.0457 22.9979 14.2724 22.7135 14.4283C22.4291 14.5843 22.1092 14.6641 21.7849 14.6601H20.8399C20.8899 16.2067 20.8016 18.0634 20.5733 19.3984C20.3049 20.9733 18.8499 22 17.3 22H6.70012C5.15014 22 3.69516 20.9733 3.42683 19.4C3.1985 18.0634 3.11017 16.2067 3.16017 14.6601H2.21352C1.52853 14.6601 0.921867 14.3118 0.590205 13.7701C0.411476 13.4804 0.322437 13.1444 0.3343 12.8042C0.346163 12.464 0.458396 12.135 0.656871 11.8585L1.0102 11.3552C3.26569 8.17964 6.07093 5.43311 9.29341 3.24527L10.4001 2.48861ZM12.425 4.20859C12.2984 4.12679 12.1508 4.08327 12 4.08327C11.8493 4.08327 11.7017 4.12679 11.575 4.20859L10.4684 4.96524C7.45268 7.01462 4.8266 9.58538 2.71351 12.5568L2.69851 12.5768H4.26515C4.40974 12.5769 4.55273 12.6071 4.68501 12.6655C4.81728 12.7239 4.93595 12.8092 5.03346 12.916C5.13098 13.0227 5.20519 13.1486 5.25139 13.2856C5.29759 13.4226 5.31476 13.5678 5.3018 13.7118C5.16347 15.2301 5.22514 17.5617 5.48014 19.0484C5.5518 19.47 6.00513 19.9167 6.70012 19.9167H8.80342V15.8918C8.7937 15.4659 8.86917 15.0425 9.0254 14.6462C9.18163 14.25 9.41548 13.889 9.7132 13.5844C10.0109 13.2798 10.3665 13.0377 10.7591 12.8725C11.1516 12.7073 11.5733 12.6221 11.9992 12.6221C12.4251 12.6221 12.8468 12.7073 13.2393 12.8725C13.6319 13.0377 13.9875 13.2798 14.2852 13.5844C14.5829 13.889 14.8168 14.25 14.973 14.6462C15.1293 15.0425 15.2047 15.4659 15.195 15.8918V19.9167H17.3C17.995 19.9167 18.4483 19.47 18.5199 19.0484C18.7749 17.5617 18.8366 15.2318 18.6983 13.7118C18.6853 13.5678 18.7025 13.4226 18.7487 13.2856C18.7949 13.1486 18.8691 13.0227 18.9666 12.916C19.0641 12.8092 19.1828 12.7239 19.3151 12.6655C19.4474 12.6071 19.5903 12.5769 19.7349 12.5768H21.3016L21.2866 12.5568C19.174 9.58553 16.5485 7.01477 13.5334 4.96524L12.425 4.20859Z" fill="#141312" fill-opacity="0.25"/>
</svg>
