<svg width="24" height="24" viewBox="0 0 24 24" fill="none" xmlns="http://www.w3.org/2000/svg">
<path fill-rule="evenodd" clip-rule="evenodd" d="M10.5296 2.71417C10.9525 2.39307 11.469 2.21924 12 2.21924C12.5311 2.21924 13.0475 2.39307 13.4705 2.71417L14.5405 3.52641C17.6838 5.91437 20.3766 8.84322 22.4926 12.1757L22.8363 12.7156C22.992 12.9607 23.0789 13.2431 23.0881 13.5333C23.0973 13.8235 23.0284 14.1108 22.8885 14.3653C22.7487 14.6197 22.5431 14.832 22.2932 14.9798C22.0434 15.1277 21.7584 15.2057 21.468 15.2058H20.3478C20.4126 16.6973 20.3315 18.1905 20.1046 19.6674C19.9953 20.3783 19.635 21.0265 19.0889 21.4947C18.5429 21.9628 17.8472 22.2198 17.128 22.2192H14.0266V16.8757C14.0266 16.3382 13.8131 15.8227 13.433 15.4427C13.053 15.0626 12.5375 14.8491 12 14.8491C11.4625 14.8491 10.9471 15.0626 10.567 15.4427C10.187 15.8227 9.97348 16.3382 9.97348 16.8757V22.2192H6.87206C6.15346 22.2181 5.45888 21.9604 4.91345 21.4926C4.36801 21.0247 4.00759 20.3775 3.89709 19.6674C3.67012 18.1905 3.58906 16.6957 3.65391 15.2058H2.53201C2.24167 15.2057 1.95667 15.1277 1.70679 14.9798C1.45691 14.832 1.25132 14.6197 1.1115 14.3653C0.971683 14.1108 0.902763 13.8235 0.911944 13.5333C0.921124 13.2431 1.00807 12.9607 1.16369 12.7156L1.50577 12.1741C3.62243 8.84204 6.31577 5.91374 9.45955 3.52641L10.5296 2.71417Z" fill="#141312"/>
</svg>
