<svg width="24" height="24" viewBox="0 0 24 24" fill="none" xmlns="http://www.w3.org/2000/svg">
<path fill-rule="evenodd" clip-rule="evenodd" d="M5.62047 2.30711C6.90047 2.15778 8.96936 2 12 2C12.8822 2 13.6831 2.01333 14.4067 2.036C14.4669 2.03787 14.5265 2.04789 14.584 2.06578C15.0934 2.22444 16.4627 2.79156 18.3787 4.66C20.184 6.42044 20.8071 7.71067 21.0111 8.27556C21.0342 8.34074 21.0473 8.40785 21.0502 8.47689C21.0876 9.48178 21.1111 10.6502 21.1111 12C21.1111 15.6044 20.9436 17.9142 20.7885 19.2818C20.6418 20.5702 19.6631 21.5431 18.3796 21.6929C17.0996 21.8422 15.0302 22 12 22C8.9698 22 6.90003 21.8422 5.62047 21.6929C4.33692 21.5431 3.35825 20.5702 3.21158 19.2818C3.05603 17.9142 2.88892 15.6044 2.88892 12C2.88892 8.39556 3.05647 6.08578 3.21158 4.71822C3.35825 3.42978 4.33692 2.45689 5.62047 2.30711ZM7.11114 19C6.90486 19 6.70703 18.9181 6.56117 18.7722C6.4153 18.6263 6.33336 18.4285 6.33336 18.2222C6.33336 18.0159 6.4153 17.8181 6.56117 17.6722C6.70703 17.5264 6.90486 17.4444 7.11114 17.4444H16.8889C17.0952 17.4444 17.293 17.5264 17.4389 17.6722C17.5847 17.8181 17.6667 18.0159 17.6667 18.2222C17.6667 18.4285 17.5847 18.6263 17.4389 18.7722C17.293 18.9181 17.0952 19 16.8889 19H7.11114ZM6.33336 15.1111C6.33336 14.6818 6.6818 14.3333 7.11114 14.3333H16.8889C17.0952 14.3333 17.293 14.4153 17.4389 14.5611C17.5847 14.707 17.6667 14.9048 17.6667 15.1111C17.6667 15.3174 17.5847 15.5152 17.4389 15.6611C17.293 15.8069 17.0952 15.8889 16.8889 15.8889H7.11114C6.90486 15.8889 6.70703 15.8069 6.56117 15.6611C6.4153 15.5152 6.33336 15.3174 6.33336 15.1111ZM13.532 6.31289C14.3696 6.15631 15.2217 6.09074 16.0734 6.11733C16.3151 6.1249 16.5449 6.22429 16.716 6.39528C16.8871 6.56627 16.9866 6.79602 16.9942 7.03778C17.0203 7.88947 16.9546 8.74149 16.7982 9.57911C16.6445 10.3907 15.6756 10.6027 15.1462 10.0738L14.64 9.56711L14.5351 9.65911C14.3692 9.80506 14.2064 9.95442 14.0467 10.1071C13.6476 10.4893 13.1458 11.0062 12.7125 11.5649C12.3862 11.9853 11.8822 12.108 11.4716 12.0449C11.0578 11.9804 10.5991 11.7027 10.436 11.1676C10.2734 10.6369 10.0671 10.0222 9.85114 9.52133C9.38269 9.87467 8.64269 10.5769 7.76225 11.9227C7.64933 12.0954 7.47243 12.2161 7.27047 12.2584C7.06852 12.3006 6.85805 12.2609 6.68536 12.148C6.51267 12.0351 6.39192 11.8582 6.34966 11.6562C6.3074 11.4543 6.3471 11.2438 6.46003 11.0711C7.65514 9.24533 8.68669 8.39022 9.32447 7.99822C9.99514 7.58667 10.7911 7.88889 11.1049 8.52533C11.3574 9.03733 11.5907 9.67911 11.7765 10.2484C12.1524 9.80585 12.5514 9.38348 12.972 8.98311C13.188 8.776 13.3747 8.608 13.5076 8.49111L13.5374 8.46444L13.0378 7.96489C12.5085 7.436 12.7205 6.46711 13.532 6.31289Z" fill="#141312"/>
</svg>
