<svg width="24" height="24" viewBox="0 0 24 24" fill="none" xmlns="http://www.w3.org/2000/svg">
<path fill-rule="evenodd" clip-rule="evenodd" d="M6.37746 3.91574C7.59533 3.81106 9.46938 3.70213 12 3.70213C12.2753 3.70213 12.6996 3.7034 13.0796 3.70596C13.3915 3.70766 13.6707 3.76426 13.9051 3.87489C14.963 4.37489 15.9421 5.10255 16.7834 5.94723C17.6302 6.79702 18.4026 7.80043 18.8681 8.85872C18.9555 9.05872 19.0012 9.29787 19.0051 9.57617C19.0153 10.3179 19.0213 11.2566 19.0213 12C19.0213 15.2953 18.9051 17.5306 18.7975 18.894C18.746 19.5451 18.2634 20.0294 17.623 20.0843C16.4047 20.1889 14.5307 20.2979 12 20.2979C9.46938 20.2979 7.59533 20.1889 6.37746 20.0843C5.73661 20.0294 5.25406 19.5451 5.20299 18.894C5.09448 17.5306 4.97874 15.2953 4.97874 12C4.97874 8.70468 5.09491 6.46936 5.20257 5.10596C5.25406 4.45489 5.73704 3.97064 6.37746 3.91574ZM12 2C9.42044 2 7.49789 2.11064 6.2315 2.21957C4.75533 2.34638 3.62257 3.49702 3.50597 4.97192C3.39448 6.38468 3.27661 8.66553 3.27661 12C3.27661 15.3349 3.39448 17.6153 3.50597 19.0281C3.62257 20.503 4.75533 21.6536 6.2315 21.7804C7.49789 21.8889 9.42044 22 12 22C14.5796 22 16.5021 21.8894 17.7685 21.7804C19.2447 21.6532 20.3775 20.503 20.4941 19.0281C20.6055 17.6153 20.7234 15.3345 20.7234 12C20.7234 11.2494 20.7175 10.303 20.7068 9.55234C20.7009 9.11064 20.6281 8.63319 20.426 8.17362C19.8494 6.86255 18.929 5.68894 17.9894 4.74553C17.0319 3.78468 15.8949 2.93277 14.6319 2.33617C14.1285 2.09787 13.5949 2.00681 13.0907 2.00383C12.7271 2.0015 12.3636 2.00022 12 2ZM13.5234 7.12213C14.4421 6.94293 15.3782 6.86884 16.3136 6.90128C16.4639 6.90607 16.6067 6.96791 16.713 7.07422C16.8193 7.18053 16.8812 7.32334 16.886 7.47362C16.9183 8.40907 16.844 9.34516 16.6647 10.2638C16.566 10.7643 15.9617 10.9098 15.62 10.5681L15.1536 10.1021C14.609 10.5919 13.8413 11.3336 13.2383 12.1132C12.6149 12.9191 11.243 12.863 10.7979 11.8132C10.5617 11.2562 10.2392 10.5213 9.93916 9.91915C9.49916 10.2723 8.85959 10.9123 8.12044 12.0426C8.05157 12.1478 7.96264 12.2384 7.85874 12.3093C7.75484 12.3801 7.638 12.4298 7.5149 12.4555C7.39179 12.4812 7.26483 12.4824 7.14125 12.4591C7.01768 12.4357 6.89992 12.3882 6.7947 12.3194C6.68947 12.2505 6.59884 12.1616 6.52798 12.0577C6.45713 11.9538 6.40743 11.8369 6.38172 11.7138C6.35602 11.5907 6.35481 11.4637 6.37818 11.3402C6.40154 11.2166 6.44901 11.0988 6.51789 10.9936C7.6915 9.2 8.73704 8.3566 9.39576 7.96851C10.1566 7.52 11.0128 7.87745 11.3728 8.52851C11.6558 9.04043 11.9707 9.7166 12.2379 10.3196C12.7284 9.76661 13.2492 9.24127 13.7979 8.74596L13.2192 8.16723C12.877 7.82553 13.0234 7.22128 13.5234 7.12213ZM7.31916 14.0213C7.06523 14.0213 6.8217 14.1222 6.64215 14.3017C6.46259 14.4813 6.36172 14.7248 6.36172 14.9787C6.36172 15.2327 6.46259 15.4762 6.64215 15.6557C6.8217 15.8353 7.06523 15.9362 7.31916 15.9362H16.6809C16.9348 15.9362 17.1783 15.8353 17.3579 15.6557C17.5374 15.4762 17.6383 15.2327 17.6383 14.9787C17.6383 14.7248 17.5374 14.4813 17.3579 14.3017C17.1783 14.1222 16.9348 14.0213 16.6809 14.0213H7.31916ZM7.31916 17C7.06523 17 6.8217 17.1009 6.64215 17.2804C6.46259 17.46 6.36172 17.7035 6.36172 17.9574C6.36172 18.2114 6.46259 18.4549 6.64215 18.6345C6.8217 18.814 7.06523 18.9149 7.31916 18.9149H16.6809C16.9348 18.9149 17.1783 18.814 17.3579 18.6345C17.5374 18.4549 17.6383 18.2114 17.6383 17.9574C17.6383 17.7035 17.5374 17.46 17.3579 17.2804C17.1783 17.1009 16.9348 17 16.6809 17H7.31916Z" fill="#141312" fill-opacity="0.25"/>
<path d="M13.0911 1.9541C13.601 1.95713 14.1423 2.04898 14.6536 2.29102C15.9224 2.89041 17.0639 3.74584 18.0247 4.70996C18.9669 5.65608 19.8921 6.83485 20.4719 8.15332C20.6774 8.62053 20.7511 9.10521 20.7571 9.55176C20.7677 10.3026 20.7737 11.2492 20.7737 12C20.7737 15.3356 20.6558 17.618 20.5442 19.0322C20.4256 20.5312 19.2734 21.7007 17.7727 21.8301C16.5049 21.9391 14.5811 22.0498 12.0002 22.0498C9.41923 22.0498 7.49459 21.9387 6.22681 21.8301C4.72635 21.701 3.57489 20.531 3.4563 19.0322C3.3447 17.618 3.22681 15.3361 3.22681 12C3.22681 8.66436 3.3447 6.38198 3.4563 4.96777C3.57489 3.46895 4.72635 2.29902 6.22681 2.16992C7.49461 2.06086 9.41924 1.9502 12.0002 1.9502C12.3638 1.95042 12.7275 1.95177 13.0911 1.9541ZM12.0002 3.75195C9.47126 3.75195 7.59855 3.86127 6.38208 3.96582C5.76617 4.01861 5.30177 4.48352 5.2522 5.11035C5.14466 6.47235 5.02856 8.70623 5.02856 12C5.02856 15.2938 5.14479 17.5277 5.25317 18.8896C5.30234 19.5165 5.76575 19.9814 6.38208 20.0342C7.59855 20.1387 9.47126 20.248 12.0002 20.248C14.5291 20.248 16.4016 20.1387 17.6184 20.0342C18.2343 19.9814 18.6977 19.5165 18.7473 18.8896C18.8548 17.5277 18.9709 15.2938 18.9709 12C18.9709 11.2569 18.9655 10.3186 18.9553 9.57715C18.9514 9.30385 18.9065 9.07134 18.8225 8.87891C18.3603 7.82808 17.5923 6.82945 16.7483 5.98242C15.9105 5.14121 14.9358 4.41708 13.884 3.91992C13.6574 3.813 13.3855 3.75753 13.0793 3.75586C12.6996 3.75331 12.2755 3.75195 12.0002 3.75195ZM16.6809 16.9502C16.948 16.9502 17.2039 17.0563 17.3928 17.2451C17.5817 17.434 17.6886 17.69 17.6887 17.957C17.6887 18.2242 17.5818 18.481 17.3928 18.6699C17.2039 18.8587 16.948 18.9648 16.6809 18.9648H7.31958C7.05239 18.9648 6.79562 18.8589 6.60669 18.6699C6.41776 18.481 6.31177 18.2242 6.31177 17.957C6.31188 17.69 6.4179 17.4339 6.60669 17.2451C6.79562 17.0562 7.05239 16.9502 7.31958 16.9502H16.6809ZM16.6809 13.9717C16.948 13.9717 17.2039 14.0777 17.3928 14.2666C17.5817 14.4555 17.6887 14.7114 17.6887 14.9785C17.6887 15.2457 17.5818 15.5025 17.3928 15.6914C17.2039 15.8801 16.9479 15.9863 16.6809 15.9863H7.31958C7.05244 15.9863 6.79561 15.8803 6.60669 15.6914C6.41776 15.5025 6.31177 15.2457 6.31177 14.9785C6.31182 14.7115 6.41792 14.4555 6.60669 14.2666C6.79562 14.0777 7.05239 13.9717 7.31958 13.9717H16.6809ZM16.3157 6.85156C16.4785 6.85687 16.6331 6.92387 16.7483 7.03906C16.8635 7.15428 16.9305 7.30886 16.9358 7.47168C16.9642 8.29351 16.9111 9.11609 16.7766 9.92676L16.7141 10.2734C16.6069 10.8171 15.9513 10.9706 15.5842 10.6035L15.1516 10.1709C14.6103 10.6598 13.865 11.3841 13.2776 12.1436C12.6338 12.9759 11.2142 12.9219 10.7522 11.833C10.5235 11.2936 10.2134 10.5878 9.92212 9.99805C9.48863 10.3552 8.87202 10.9852 8.16235 12.0703C8.08991 12.1809 7.9962 12.2761 7.88696 12.3506C7.77764 12.4251 7.65419 12.4778 7.52466 12.5049C7.3953 12.5318 7.26192 12.5324 7.13208 12.5078C7.00206 12.4832 6.87756 12.4338 6.76685 12.3613C6.65625 12.2889 6.56107 12.1952 6.48657 12.0859C6.41201 11.9766 6.3603 11.8532 6.33325 11.7236C6.30627 11.5942 6.3048 11.4609 6.32935 11.3311C6.35393 11.201 6.40336 11.0765 6.47583 10.9658C7.65287 9.16703 8.7041 8.31835 9.37036 7.92578C10.1591 7.46086 11.0447 7.83247 11.4163 8.50391C11.6894 8.99795 11.9907 9.64438 12.2512 10.2295C12.7165 9.70898 13.2088 9.21332 13.7258 8.74414L13.1838 8.20215C12.8165 7.83495 12.971 7.18091 13.5139 7.07324C14.4363 6.89333 15.3765 6.81899 16.3157 6.85156Z" stroke="#141312" stroke-opacity="0.25" stroke-width="0.1"/>
</svg>
