<svg width="24" height="24" viewBox="0 0 24 24" fill="none" xmlns="http://www.w3.org/2000/svg">
<path d="M19.8853 6.59417C20.2581 6.6456 20.6297 6.70045 21 6.75874M19.8853 6.59417L18.7204 19.0399C18.6729 19.5979 18.3939 20.1199 17.94 20.5005C17.4707 20.8872 16.8805 21.0969 16.2724 21.0932H7.72757C7.11043 21.0932 6.51386 20.8823 6.06 20.5017C5.83941 20.3218 5.65682 20.0997 5.52284 19.8486C5.38885 19.5974 5.30616 19.322 5.27957 19.0386L4.11471 6.59417M19.8853 6.59417C18.6252 6.42179 17.3598 6.291 16.0911 6.20203M4.11471 6.59417C3.74186 6.6456 3.37029 6.70003 3 6.75745M4.11471 6.59417C5.37477 6.42179 6.64018 6.291 7.90886 6.20203M16.0911 6.20203C13.3671 6.01105 10.6329 6.01105 7.90886 6.20203M16.0911 6.20203C16.0911 3.48403 14.2204 2.25488 12 2.25488C9.77957 2.25488 7.90886 3.65888 7.90886 6.20203M10.0714 16.5932L9.42857 10.8075M14.5714 10.8075L13.9286 16.5932" stroke="#FAFAFA" stroke-width="2" stroke-linecap="round" stroke-linejoin="round"/>
</svg>
