<svg width="20" height="21" viewBox="0 0 20 21" fill="none" xmlns="http://www.w3.org/2000/svg">
<path d="M17.8853 5.33929C18.2581 5.39071 18.6297 5.44557 19 5.50386M17.8853 5.33929L16.7204 17.785C16.6729 18.343 16.3939 18.865 15.94 19.2456C15.4707 19.6323 14.8805 19.842 14.2724 19.8383H5.72757C5.11043 19.8383 4.51386 19.6274 4.06 19.2469C3.83941 19.0669 3.65682 18.8449 3.52284 18.5937C3.38885 18.3425 3.30616 18.0672 3.27957 17.7837L2.11471 5.33929M17.8853 5.33929C16.6252 5.16691 15.3598 5.03612 14.0911 4.94714M2.11471 5.33929C1.74186 5.39071 1.37029 5.44514 1 5.50257M2.11471 5.33929C3.37477 5.16691 4.64018 5.03612 5.90886 4.94714M14.0911 4.94714C11.3671 4.75617 8.63294 4.75617 5.90886 4.94714M14.0911 4.94714C14.0911 2.22914 12.2204 1 10 1C7.77957 1 5.90886 2.404 5.90886 4.94714M8.07143 15.3383L7.42857 9.55257M12.5714 9.55257L11.9286 15.3383" stroke="#FAFAFA" stroke-width="2" stroke-linecap="round" stroke-linejoin="round"/>
</svg>
