<svg width="213" height="67" viewBox="0 0 213 67" fill="none" xmlns="http://www.w3.org/2000/svg">
<mask id="path-1-inside-1_4335_19843" fill="white">
<path d="M97.5758 56.2537C97.1977 55.7543 96.6076 55.4609 95.9812 55.4609H12C5.37258 55.4609 0 50.0884 0 43.4609V12C0 5.37258 5.37258 0 12 0H201C207.627 0 213 5.37258 213 12V43.4609C213 50.0884 207.627 55.4609 201 55.4609H115.966C115.34 55.4609 114.75 55.7543 114.371 56.2537L107.568 65.2396C106.768 66.2966 105.179 66.2966 104.379 65.2396L97.5758 56.2537Z"/>
</mask>
<path d="M97.5758 56.2537C97.1977 55.7543 96.6076 55.4609 95.9812 55.4609H12C5.37258 55.4609 0 50.0884 0 43.4609V12C0 5.37258 5.37258 0 12 0H201C207.627 0 213 5.37258 213 12V43.4609C213 50.0884 207.627 55.4609 201 55.4609H115.966C115.34 55.4609 114.75 55.7543 114.371 56.2537L107.568 65.2396C106.768 66.2966 105.179 66.2966 104.379 65.2396L97.5758 56.2537Z" fill="#FAFAFA"/>
<path d="M114.371 56.2537L113.574 55.6501L114.371 56.2537ZM107.568 65.2396L106.771 64.636L107.568 65.2396ZM104.379 65.2396L105.176 64.636L104.379 65.2396ZM97.5758 56.2537L98.3731 55.6501L97.5758 56.2537ZM95.9812 55.4609V54.4609H12V55.4609V56.4609H95.9812V55.4609ZM12 55.4609V54.4609C5.92487 54.4609 1 49.5361 1 43.4609H0H-1C-1 50.6406 4.8203 56.4609 12 56.4609V55.4609ZM0 43.4609H1V12H0H-1V43.4609H0ZM0 12H1C1 5.92487 5.92487 1 12 1V0V-1C4.8203 -1 -1 4.8203 -1 12H0ZM12 0V1H201V0V-1H12V0ZM201 0V1C207.075 1 212 5.92487 212 12H213H214C214 4.8203 208.18 -1 201 -1V0ZM213 12H212V43.4609H213H214V12H213ZM213 43.4609H212C212 49.5361 207.075 54.4609 201 54.4609V55.4609V56.4609C208.18 56.4609 214 50.6406 214 43.4609H213ZM201 55.4609V54.4609H115.966V55.4609V56.4609H201V55.4609ZM114.371 56.2537L113.574 55.6501L106.771 64.636L107.568 65.2396L108.365 65.8432L115.169 56.8573L114.371 56.2537ZM104.379 65.2396L105.176 64.636L98.3731 55.6501L97.5758 56.2537L96.7785 56.8573L103.582 65.8432L104.379 65.2396ZM115.966 55.4609V54.4609C115.027 54.4609 114.141 54.9011 113.574 55.6501L114.371 56.2537L115.169 56.8573C115.358 56.6076 115.653 56.4609 115.966 56.4609V55.4609ZM107.568 65.2396L106.771 64.636C106.371 65.1645 105.576 65.1645 105.176 64.636L104.379 65.2396L103.582 65.8432C104.782 67.4287 107.165 67.4287 108.365 65.8432L107.568 65.2396ZM95.9812 55.4609V56.4609C96.2944 56.4609 96.5895 56.6076 96.7785 56.8573L97.5758 56.2537L98.3731 55.6501C97.806 54.9011 96.9207 54.4609 95.9812 54.4609V55.4609Z" fill="#EAEAEA" mask="url(#path-1-inside-1_4335_19843)"/>
</svg>
