<svg width="18" height="18" viewBox="0 0 18 18" fill="none" xmlns="http://www.w3.org/2000/svg">
<path d="M10.4548 4.65112L12.1138 2.99211C12.2495 2.85647 12.4335 2.78027 12.6253 2.78027C12.8172 2.78027 13.0012 2.85647 13.1368 2.99211L15.0078 4.86311C15.1435 4.99879 15.2197 5.18278 15.2197 5.37463C15.2197 5.56648 15.1435 5.75047 15.0078 5.88615L13.3488 7.54516M10.4548 4.65112L3.43165 11.6742C3.29596 11.8099 3.21971 11.9939 3.21967 12.1858V14.0568C3.21967 14.2486 3.29589 14.4327 3.43158 14.5684C3.56726 14.704 3.75129 14.7803 3.94318 14.7803H5.81418C6.00605 14.7802 6.19005 14.704 6.3257 14.5683L13.3488 7.54516M10.4548 4.65112L13.3488 7.54516" stroke="#8A8989" stroke-width="1.5" stroke-linecap="round" stroke-linejoin="round"/>
</svg>
