<svg width="62" height="64" viewBox="0 0 62 64" fill="none" xmlns="http://www.w3.org/2000/svg">
<g opacity="0.75">
<path d="M45.0198 5.0089L34.0385 38.5445C33.8846 39.0146 34.2153 39.5037 34.7089 39.5359C35.0234 39.5564 35.3177 39.38 35.4479 39.0931L50.0782 6.84763C50.5811 5.73921 49.9856 4.44235 48.8172 4.10136L47.4808 3.71137C46.4448 3.40901 45.3557 3.98322 45.0198 5.0089Z" fill="#EAEAEA"/>
<path d="M55.4234 4.3275L37.4207 34.6776C37.1683 35.1031 37.3849 35.6523 37.8598 35.7909C38.1623 35.8792 38.4878 35.771 38.6773 35.5192L59.9616 7.22094C60.6933 6.24821 60.3937 4.85297 59.3272 4.26635L58.1074 3.59543C57.1618 3.07528 55.974 3.39924 55.4234 4.3275Z" fill="#EAEAEA"/>
</g>
<path d="M35.3043 15.9439C45.63 17.4428 52.8538 27.0641 51.9244 37.747C51.8651 38.428 51.2485 38.9 50.5907 38.8047L29.3327 35.7189C29.0112 35.6722 28.7199 35.9196 28.6911 36.2524C28.6321 36.9336 28.0143 37.4064 27.3563 37.3109L7.36888 34.4096C6.71094 34.314 6.25395 33.6852 6.39107 33.0154C7.9918 25.1963 13.7099 19.6914 19.5858 20.5442C19.7549 20.5687 19.9276 20.5204 20.0599 20.4081C24.1914 16.903 29.6481 15.1229 35.3043 15.9439Z" fill="#EAEAEA"/>
<path d="M3.55856 31.6026C3.62498 30.922 4.25634 30.4526 4.93303 30.5508L53.9432 37.665C54.6199 37.7633 55.0917 38.3928 54.9619 39.0642C52.3421 52.6128 39.5028 61.8414 25.7032 59.8383C11.9035 57.8351 2.21802 45.3369 3.55856 31.6026Z" fill="#FAFAFA"/>
<path d="M3.55856 31.6026C3.62498 30.922 4.25634 30.4526 4.93303 30.5508L53.9432 37.665C54.6199 37.7633 55.0917 38.3928 54.9619 39.0642C52.3421 52.6128 39.5028 61.8414 25.7032 59.8383C11.9035 57.8351 2.21802 45.3369 3.55856 31.6026Z" fill="#F2F2F2"/>
</svg>
