<svg width="69" height="134" viewBox="0 0 69 134" fill="none" xmlns="http://www.w3.org/2000/svg">
<path d="M21.1672 69.161C0.183278 45.7781 9.04375 23.4513 16.097 15.2108L69.4428 14.6558C62.3687 20.8964 51.2281 33.2463 60.532 60.751C69.8358 88.2557 45.9811 106.738 32.8907 112.541L12.9789 112.749C24.4516 107.962 42.1511 92.5439 21.1672 69.161Z" fill="#FAFAFA"/>
<path d="M19.6552 61.5171C0.957081 34.3466 8.7614 8.4851 15.0008 -1.04936L106.368 -5.79119C100.105 1.42445 46.2454 19.961 54.5842 51.8774C62.923 83.7938 41.7941 105.156 30.1873 111.847L12.6434 117.277C22.8168 111.76 38.3533 88.6876 19.6552 61.5171Z" fill="#EAEAEA"/>
<path d="M51.5825 101.601C51.5161 100.92 50.8847 100.451 50.2081 100.549L1.19789 107.663C0.521199 107.761 0.0493745 108.391 0.179185 109.062C2.79896 122.611 15.6383 131.839 29.4379 129.836C43.2376 127.833 52.9231 115.335 51.5825 101.601Z" fill="#FAFAFA"/>
<path d="M51.5825 101.601C51.5161 100.92 50.8847 100.451 50.2081 100.549L1.19789 107.663C0.521199 107.761 0.0493745 108.391 0.179185 109.062C2.79896 122.611 15.6383 131.839 29.4379 129.836C43.2376 127.833 52.9231 115.335 51.5825 101.601Z" fill="#F2F2F2"/>
</svg>
