<svg width="60" height="78" viewBox="0 0 60 78" fill="none" xmlns="http://www.w3.org/2000/svg">
<path opacity="0.5" d="M55.8927 40.1577C56.3935 41.1423 56.0012 42.3463 55.0166 42.847L46.2189 47.3209C45.2343 47.8216 44.842 49.0257 45.3428 50.0103L59.3566 77.565C59.8573 78.5495 59.4651 79.7536 58.4806 80.2543L50.963 84.0777C49.9784 84.5784 48.7743 84.1862 48.2736 83.2016L34.2598 55.6461C33.759 54.6615 32.5549 54.2693 31.5703 54.7701L22.7736 59.2446C21.789 59.7454 20.5848 59.3531 20.0841 58.3685L0.217719 19.3042C-0.282993 18.3196 0.109267 17.1156 1.09385 16.6149L33.337 0.218082C34.3216 -0.2826 35.5256 0.109639 36.0263 1.09418L55.8927 40.1577ZM10.5312 20.401C9.5467 20.9017 9.15448 22.1057 9.65518 23.0903L22.5842 48.5131C23.0849 49.4977 24.2889 49.89 25.2735 49.3892L26.8234 48.601C27.8079 48.1002 28.2001 46.8962 27.6994 45.9117L14.7705 20.4888C14.2697 19.5042 13.0657 19.112 12.0811 19.6127L10.5312 20.401ZM19.9094 15.6315C18.9247 16.1322 18.5325 17.3363 19.0332 18.3209L31.9621 43.7437C32.4628 44.7283 33.6668 45.1205 34.6514 44.6199L36.2021 43.8314C37.1867 43.3307 37.579 42.1266 37.0783 41.142L24.1493 15.7191C23.6486 14.7346 22.4446 14.3424 21.4601 14.843L19.9094 15.6315ZM29.2881 10.8619C28.3035 11.3626 27.9113 12.5667 28.412 13.5512L41.341 38.9741C41.8417 39.9587 43.0458 40.3509 44.0304 39.8502L45.5802 39.0619C46.5648 38.5612 46.957 37.3572 46.4563 36.3726L33.5273 10.9498C33.0266 9.96517 31.8225 9.57293 30.8379 10.0737L29.2881 10.8619Z" fill="#FAFAFA" fill-opacity="0.75"/>
</svg>
