<svg width="111" height="99" viewBox="0 0 111 99" fill="none" xmlns="http://www.w3.org/2000/svg">
<g filter="url(#filter0_g_4340_10811)">
<path d="M28.5685 57.6761C19.8868 56.5579 13.3426 53.9926 8.93595 49.9803C4.59508 45.9022 2.42464 40.8703 2.42464 34.8847C2.42464 30.2804 3.67429 25.4787 6.17358 20.4798L2.03002 20.8744L1.04346 3.60823C11.8299 2.42427 22.7478 1.83228 33.7973 1.83228C44.8468 1.83228 55.7318 2.42427 66.4525 3.60823L65.4659 20.6771C58.56 19.9536 50.5688 19.5918 41.4925 19.5918C37.2831 19.5918 33.8302 19.6905 31.1336 19.8878C29.9497 21.2691 29.1276 22.4859 28.6672 23.5383C34.9154 23.341 40.9992 23.2424 46.9186 23.2424C50.2071 23.2424 55.6003 23.3081 63.0982 23.4397L63.5914 36.7593C56.0936 37.0882 47.5763 37.2526 38.0395 37.2526H30.6403C32.153 38.897 34.0604 40.0152 36.3624 40.6072C39.3878 41.4623 43.0381 41.8898 47.3132 41.8898C53.0352 41.8898 59.2506 41.1663 65.9592 39.7192L69.4122 54.5188C60.3358 57.1499 50.9306 58.4654 41.1965 58.4654C36.5268 58.4654 32.3174 58.2023 28.5685 57.6761ZM59.4479 97.043C48.2669 97.043 39.2892 96.4181 32.5148 95.1684C25.7404 93.9844 20.7418 92.0111 17.519 89.2485C14.2963 86.4859 12.6849 82.8025 12.6849 78.1982C12.6849 73.5938 14.2634 69.9762 17.4204 67.3451C20.6431 64.6483 25.6088 62.7408 32.3174 61.6226C39.0918 60.4387 48.1353 59.8467 59.4479 59.8467C70.7605 59.8467 79.771 60.4387 86.4797 61.6226C93.2541 62.7408 98.2197 64.6483 101.377 67.3451C104.6 69.9762 106.211 73.5938 106.211 78.1982C106.211 82.8025 104.6 86.4859 101.377 89.2485C98.154 92.0111 93.1554 93.9844 86.381 95.1684C79.6066 96.4181 70.6289 97.043 59.4479 97.043ZM59.4479 81.0594C63.9861 81.0594 67.3404 80.9936 69.5108 80.8621C71.747 80.7305 73.3255 80.4674 74.2463 80.0728C75.1671 79.6781 75.6275 79.0532 75.6275 78.1982C75.6275 77.4088 75.1671 76.8169 74.2463 76.4222C73.3255 76.0276 71.747 75.7645 69.5108 75.6329C67.2746 75.4356 63.9203 75.3369 59.4479 75.3369C54.9755 75.3369 51.6212 75.4356 49.385 75.6329C47.1488 75.7645 45.5703 76.0276 44.6495 76.4222C43.7287 76.8169 43.2683 77.4088 43.2683 78.1982C43.2683 79.0532 43.7287 79.6781 44.6495 80.0728C45.5703 80.4674 47.1159 80.7305 49.2863 80.8621C51.5225 80.9936 54.9097 81.0594 59.4479 81.0594ZM67.439 19.3945H77.0087C77.1402 12.6853 77.5348 6.56815 78.1925 1.04297H108.973C109.368 6.37082 109.565 12.2249 109.565 18.6052C109.565 25.5116 109.302 32.3852 108.776 39.2259C108.25 46.0008 107.461 52.0851 106.408 57.4787H79.0804C78.4227 53.4006 77.8637 47.9412 77.4033 41.1005H67.439V19.3945Z" fill="#C4C4C3"/>
</g>
<defs>
<filter id="filter0_g_4340_10811" x="-2.12193e-05" y="-0.000509501" width="110.609" height="98.087" filterUnits="userSpaceOnUse" color-interpolation-filters="sRGB">
<feFlood flood-opacity="0" result="BackgroundImageFix"/>
<feBlend mode="normal" in="SourceGraphic" in2="BackgroundImageFix" result="shape"/>
<feTurbulence type="fractalNoise" baseFrequency="0.1197916641831398 0.1197916641831398" numOctaves="3" seed="733" />
<feDisplacementMap in="shape" scale="2.0869565010070801" xChannelSelector="R" yChannelSelector="G" result="displacedImage" width="100%" height="100%" />
<feMerge result="effect1_texture_4340_10811">
<feMergeNode in="displacedImage"/>
</feMerge>
</filter>
</defs>
</svg>
